<svg id="visual" viewBox="0 0 960 540" width="960" height="540" xmlns="http://www.w3.org/2000/svg" xmlns:xlink="http://www.w3.org/1999/xlink" version="1.1">
	<g stroke-width="1" stroke-linejoin="bevel">
		<path d="M518 299L479 333L516 316Z" fill="#277297" stroke="#277297"></path>
		<path d="M479 333L497 358L516 316Z" fill="#19435d" stroke="#19435d"></path>
		<path d="M402 312L447 342L479 333Z" fill="#112e42" stroke="#112e42"></path>
		<path d="M479 333L447 342L497 358Z" fill="#112e42" stroke="#112e42"></path>
		<path d="M516 316L546 274L518 299Z" fill="#081a28" stroke="#081a28"></path>
		<path d="M422 239L402 312L479 333Z" fill="#246688" stroke="#246688"></path>
		<path d="M571 271L546 274L516 316Z" fill="#277297" stroke="#277297"></path>
		<path d="M447 342L436 362L497 358Z" fill="#1d4e6b" stroke="#1d4e6b"></path>
		<path d="M422 239L479 333L518 299Z" fill="#112e42" stroke="#112e42"></path>
		<path d="M447 342L402 312L436 362Z" fill="#19435d" stroke="#19435d"></path>
		<path d="M621 384L571 271L516 316Z" fill="#1d4e6b" stroke="#1d4e6b"></path>
		<path d="M571 271L567 257L546 274Z" fill="#1d4e6b" stroke="#1d4e6b"></path>
		<path d="M471 185L422 239L518 299Z" fill="#19435d" stroke="#19435d"></path>
		<path d="M530 202L518 299L546 274Z" fill="#205a7a" stroke="#205a7a"></path>
		<path d="M567 257L552 232L546 274Z" fill="#19435d" stroke="#19435d"></path>
		<path d="M422 239L389 297L402 312Z" fill="#00101c" stroke="#00101c"></path>
		<path d="M402 312L385 368L436 362Z" fill="#00101c" stroke="#00101c"></path>
		<path d="M436 362L495 405L497 358Z" fill="#205a7a" stroke="#205a7a"></path>
		<path d="M497 358L549 407L516 316Z" fill="#246688" stroke="#246688"></path>
		<path d="M552 232L530 202L546 274Z" fill="#15384f" stroke="#15384f"></path>
		<path d="M495 405L549 407L497 358Z" fill="#277297" stroke="#277297"></path>
		<path d="M530 202L471 185L518 299Z" fill="#112e42" stroke="#112e42"></path>
		<path d="M378 370L385 368L402 312Z" fill="#205a7a" stroke="#205a7a"></path>
		<path d="M436 362L404 412L495 405Z" fill="#0c2435" stroke="#0c2435"></path>
		<path d="M567 257L577 220L552 232Z" fill="#1d4e6b" stroke="#1d4e6b"></path>
		<path d="M552 232L577 220L530 202Z" fill="#081a28" stroke="#081a28"></path>
		<path d="M636 238L577 220L567 257Z" fill="#00101c" stroke="#00101c"></path>
		<path d="M389 297L378 370L402 312Z" fill="#246688" stroke="#246688"></path>
		<path d="M385 368L383 389L436 362Z" fill="#246688" stroke="#246688"></path>
		<path d="M378 370L383 389L385 368Z" fill="#15384f" stroke="#15384f"></path>
		<path d="M383 389L404 412L436 362Z" fill="#19435d" stroke="#19435d"></path>
		<path d="M495 405L549 436L549 407Z" fill="#112e42" stroke="#112e42"></path>
		<path d="M516 139L491 166L530 202Z" fill="#15384f" stroke="#15384f"></path>
		<path d="M530 202L491 166L471 185Z" fill="#19435d" stroke="#19435d"></path>
		<path d="M471 185L430 172L422 239Z" fill="#00101c" stroke="#00101c"></path>
		<path d="M422 239L324 255L389 297Z" fill="#081a28" stroke="#081a28"></path>
		<path d="M449 150L430 172L471 185Z" fill="#00101c" stroke="#00101c"></path>
		<path d="M553 442L549 436L520 473Z" fill="#081a28" stroke="#081a28"></path>
		<path d="M635 262L567 257L571 271Z" fill="#15384f" stroke="#15384f"></path>
		<path d="M636 238L600 201L577 220Z" fill="#19435d" stroke="#19435d"></path>
		<path d="M577 220L600 201L530 202Z" fill="#205a7a" stroke="#205a7a"></path>
		<path d="M635 262L571 271L662 308Z" fill="#277297" stroke="#277297"></path>
		<path d="M520 473L549 436L495 405Z" fill="#112e42" stroke="#112e42"></path>
		<path d="M549 436L596 417L549 407Z" fill="#297ea6" stroke="#297ea6"></path>
		<path d="M621 384L516 316L549 407Z" fill="#0c2435" stroke="#0c2435"></path>
		<path d="M596 417L621 384L549 407Z" fill="#297ea6" stroke="#297ea6"></path>
		<path d="M430 172L396 179L422 239Z" fill="#19435d" stroke="#19435d"></path>
		<path d="M389 297L320 326L378 370Z" fill="#112e42" stroke="#112e42"></path>
		<path d="M553 442L596 417L549 436Z" fill="#246688" stroke="#246688"></path>
		<path d="M502 109L449 150L491 166Z" fill="#112e42" stroke="#112e42"></path>
		<path d="M491 166L449 150L471 185Z" fill="#112e42" stroke="#112e42"></path>
		<path d="M430 172L404 137L396 179Z" fill="#112e42" stroke="#112e42"></path>
		<path d="M635 262L636 238L567 257Z" fill="#19435d" stroke="#19435d"></path>
		<path d="M553 442L599 425L596 417Z" fill="#277297" stroke="#277297"></path>
		<path d="M596 417L638 409L621 384Z" fill="#277297" stroke="#277297"></path>
		<path d="M595 139L516 139L530 202Z" fill="#297ea6" stroke="#297ea6"></path>
		<path d="M631 202L615 193L600 201Z" fill="#1d4e6b" stroke="#1d4e6b"></path>
		<path d="M600 201L595 139L530 202Z" fill="#112e42" stroke="#112e42"></path>
		<path d="M324 255L320 326L389 297Z" fill="#277297" stroke="#277297"></path>
		<path d="M378 370L326 392L383 389Z" fill="#00101c" stroke="#00101c"></path>
		<path d="M383 389L388 446L404 412Z" fill="#1d4e6b" stroke="#1d4e6b"></path>
		<path d="M396 179L324 255L422 239Z" fill="#112e42" stroke="#112e42"></path>
		<path d="M486 487L520 473L495 405Z" fill="#1d4e6b" stroke="#1d4e6b"></path>
		<path d="M553 442L584 489L599 425Z" fill="#205a7a" stroke="#205a7a"></path>
		<path d="M323 434L388 446L383 389Z" fill="#277297" stroke="#277297"></path>
		<path d="M404 412L486 487L495 405Z" fill="#205a7a" stroke="#205a7a"></path>
		<path d="M689 396L662 308L621 384Z" fill="#1d4e6b" stroke="#1d4e6b"></path>
		<path d="M621 384L662 308L571 271Z" fill="#00101c" stroke="#00101c"></path>
		<path d="M635 262L688 280L636 238Z" fill="#277297" stroke="#277297"></path>
		<path d="M636 238L631 202L600 201Z" fill="#277297" stroke="#277297"></path>
		<path d="M634 191L631 202L679 212Z" fill="#297ea6" stroke="#297ea6"></path>
		<path d="M431 502L486 487L404 412Z" fill="#246688" stroke="#246688"></path>
		<path d="M614 475L638 409L599 425Z" fill="#081a28" stroke="#081a28"></path>
		<path d="M599 425L638 409L596 417Z" fill="#246688" stroke="#246688"></path>
		<path d="M320 326L326 392L378 370Z" fill="#1d4e6b" stroke="#1d4e6b"></path>
		<path d="M679 212L631 202L636 238Z" fill="#081a28" stroke="#081a28"></path>
		<path d="M631 202L634 191L615 193Z" fill="#15384f" stroke="#15384f"></path>
		<path d="M538 112L513 111L516 139Z" fill="#246688" stroke="#246688"></path>
		<path d="M449 150L404 137L430 172Z" fill="#112e42" stroke="#112e42"></path>
		<path d="M315 227L307 251L324 255Z" fill="#19435d" stroke="#19435d"></path>
		<path d="M390 78L404 137L449 150Z" fill="#1d4e6b" stroke="#1d4e6b"></path>
		<path d="M320 326L320 389L326 392Z" fill="#081a28" stroke="#081a28"></path>
		<path d="M326 392L323 434L383 389Z" fill="#205a7a" stroke="#205a7a"></path>
		<path d="M315 227L324 255L396 179Z" fill="#00101c" stroke="#00101c"></path>
		<path d="M324 255L307 251L320 326Z" fill="#246688" stroke="#246688"></path>
		<path d="M320 326L298 386L320 389Z" fill="#297ea6" stroke="#297ea6"></path>
		<path d="M306 116L315 227L396 179Z" fill="#277297" stroke="#277297"></path>
		<path d="M595 139L600 201L615 193Z" fill="#081a28" stroke="#081a28"></path>
		<path d="M516 139L502 109L491 166Z" fill="#19435d" stroke="#19435d"></path>
		<path d="M513 111L502 109L516 139Z" fill="#081a28" stroke="#081a28"></path>
		<path d="M626 149L595 139L615 193Z" fill="#205a7a" stroke="#205a7a"></path>
		<path d="M563 112L538 112L516 139Z" fill="#112e42" stroke="#112e42"></path>
		<path d="M513 111L487 66L502 109Z" fill="#0c2435" stroke="#0c2435"></path>
		<path d="M705 309L688 280L662 308Z" fill="#205a7a" stroke="#205a7a"></path>
		<path d="M662 308L688 280L635 262Z" fill="#00101c" stroke="#00101c"></path>
		<path d="M563 112L542 110L538 112Z" fill="#0c2435" stroke="#0c2435"></path>
		<path d="M538 112L542 110L513 111Z" fill="#277297" stroke="#277297"></path>
		<path d="M397 504L431 502L388 446Z" fill="#297ea6" stroke="#297ea6"></path>
		<path d="M388 446L431 502L404 412Z" fill="#081a28" stroke="#081a28"></path>
		<path d="M595 139L563 112L516 139Z" fill="#15384f" stroke="#15384f"></path>
		<path d="M250 344L298 386L320 326Z" fill="#0c2435" stroke="#0c2435"></path>
		<path d="M320 389L323 434L326 392Z" fill="#00101c" stroke="#00101c"></path>
		<path d="M664 127L626 149L634 191Z" fill="#246688" stroke="#246688"></path>
		<path d="M634 191L626 149L615 193Z" fill="#246688" stroke="#246688"></path>
		<path d="M595 139L570 103L563 112Z" fill="#15384f" stroke="#15384f"></path>
		<path d="M522 540L584 489L520 473Z" fill="#246688" stroke="#246688"></path>
		<path d="M520 473L584 489L553 442Z" fill="#15384f" stroke="#15384f"></path>
		<path d="M486 517L520 473L486 487Z" fill="#1d4e6b" stroke="#1d4e6b"></path>
		<path d="M298 386L323 434L320 389Z" fill="#0c2435" stroke="#0c2435"></path>
		<path d="M323 434L360 471L388 446Z" fill="#081a28" stroke="#081a28"></path>
		<path d="M701 232L679 212L636 238Z" fill="#112e42" stroke="#112e42"></path>
		<path d="M584 489L614 475L599 425Z" fill="#00101c" stroke="#00101c"></path>
		<path d="M689 396L705 309L662 308Z" fill="#19435d" stroke="#19435d"></path>
		<path d="M431 502L486 517L486 487Z" fill="#246688" stroke="#246688"></path>
		<path d="M689 396L621 384L638 409Z" fill="#297ea6" stroke="#297ea6"></path>
		<path d="M688 280L701 232L636 238Z" fill="#112e42" stroke="#112e42"></path>
		<path d="M572 83L570 103L605 95Z" fill="#277297" stroke="#277297"></path>
		<path d="M563 112L570 103L542 110Z" fill="#15384f" stroke="#15384f"></path>
		<path d="M556 65L487 66L513 111Z" fill="#1d4e6b" stroke="#1d4e6b"></path>
		<path d="M360 471L397 504L388 446Z" fill="#277297" stroke="#277297"></path>
		<path d="M431 502L468 540L486 517Z" fill="#246688" stroke="#246688"></path>
		<path d="M699 430L689 396L638 409Z" fill="#15384f" stroke="#15384f"></path>
		<path d="M729 269L701 232L688 280Z" fill="#15384f" stroke="#15384f"></path>
		<path d="M640 101L605 95L626 149Z" fill="#297ea6" stroke="#297ea6"></path>
		<path d="M315 227L266 246L307 251Z" fill="#112e42" stroke="#112e42"></path>
		<path d="M307 251L244 309L320 326Z" fill="#00101c" stroke="#00101c"></path>
		<path d="M246 222L266 246L315 227Z" fill="#297ea6" stroke="#297ea6"></path>
		<path d="M605 95L570 103L595 139Z" fill="#277297" stroke="#277297"></path>
		<path d="M570 103L572 83L542 110Z" fill="#277297" stroke="#277297"></path>
		<path d="M502 109L487 66L449 150Z" fill="#00101c" stroke="#00101c"></path>
		<path d="M605 95L595 139L626 149Z" fill="#19435d" stroke="#19435d"></path>
		<path d="M420 540L468 540L431 502Z" fill="#081a28" stroke="#081a28"></path>
		<path d="M486 517L520 540L520 473Z" fill="#112e42" stroke="#112e42"></path>
		<path d="M468 540L520 540L486 517Z" fill="#081a28" stroke="#081a28"></path>
		<path d="M648 533L681 474L614 475Z" fill="#112e42" stroke="#112e42"></path>
		<path d="M556 65L513 111L542 110Z" fill="#19435d" stroke="#19435d"></path>
		<path d="M404 137L325 100L396 179Z" fill="#205a7a" stroke="#205a7a"></path>
		<path d="M520 540L522 540L520 473Z" fill="#00101c" stroke="#00101c"></path>
		<path d="M664 127L634 191L679 212Z" fill="#277297" stroke="#277297"></path>
		<path d="M244 309L250 344L320 326Z" fill="#0c2435" stroke="#0c2435"></path>
		<path d="M256 442L294 465L323 434Z" fill="#15384f" stroke="#15384f"></path>
		<path d="M705 309L729 269L688 280Z" fill="#081a28" stroke="#081a28"></path>
		<path d="M681 121L664 127L727 152Z" fill="#1d4e6b" stroke="#1d4e6b"></path>
		<path d="M740 267L729 269L776 294Z" fill="#112e42" stroke="#112e42"></path>
		<path d="M266 246L244 309L307 251Z" fill="#1d4e6b" stroke="#1d4e6b"></path>
		<path d="M397 504L420 540L431 502Z" fill="#081a28" stroke="#081a28"></path>
		<path d="M393 540L420 540L397 504Z" fill="#246688" stroke="#246688"></path>
		<path d="M393 540L397 504L387 541Z" fill="#081a28" stroke="#081a28"></path>
		<path d="M681 474L638 409L614 475Z" fill="#00101c" stroke="#00101c"></path>
		<path d="M681 474L699 430L638 409Z" fill="#081a28" stroke="#081a28"></path>
		<path d="M689 396L735 362L705 309Z" fill="#15384f" stroke="#15384f"></path>
		<path d="M487 66L390 78L449 150Z" fill="#0c2435" stroke="#0c2435"></path>
		<path d="M617 0L556 65L572 83Z" fill="#246688" stroke="#246688"></path>
		<path d="M572 83L556 65L542 110Z" fill="#277297" stroke="#277297"></path>
		<path d="M753 450L705 427L699 430Z" fill="#297ea6" stroke="#297ea6"></path>
		<path d="M699 430L705 427L689 396Z" fill="#19435d" stroke="#19435d"></path>
		<path d="M664 127L679 212L727 152Z" fill="#15384f" stroke="#15384f"></path>
		<path d="M605 95L617 0L572 83Z" fill="#1d4e6b" stroke="#1d4e6b"></path>
		<path d="M256 442L323 434L298 386Z" fill="#205a7a" stroke="#205a7a"></path>
		<path d="M323 434L294 465L360 471Z" fill="#00101c" stroke="#00101c"></path>
		<path d="M244 309L237 333L250 344Z" fill="#205a7a" stroke="#205a7a"></path>
		<path d="M215 358L256 442L298 386Z" fill="#112e42" stroke="#112e42"></path>
		<path d="M737 391L735 362L689 396Z" fill="#246688" stroke="#246688"></path>
		<path d="M664 127L640 101L626 149Z" fill="#277297" stroke="#277297"></path>
		<path d="M387 541L397 504L372 540Z" fill="#205a7a" stroke="#205a7a"></path>
		<path d="M776 294L729 269L705 309Z" fill="#205a7a" stroke="#205a7a"></path>
		<path d="M729 269L749 238L701 232Z" fill="#15384f" stroke="#15384f"></path>
		<path d="M290 128L246 222L315 227Z" fill="#0c2435" stroke="#0c2435"></path>
		<path d="M266 246L232 290L244 309Z" fill="#0c2435" stroke="#0c2435"></path>
		<path d="M244 309L219 287L237 333Z" fill="#00101c" stroke="#00101c"></path>
		<path d="M219 287L232 290L266 246Z" fill="#1d4e6b" stroke="#1d4e6b"></path>
		<path d="M600 540L614 475L584 489Z" fill="#081a28" stroke="#081a28"></path>
		<path d="M372 540L397 504L360 471Z" fill="#277297" stroke="#277297"></path>
		<path d="M393 540L387 541L420 540Z" fill="#15384f" stroke="#15384f"></path>
		<path d="M420 540L387 541L468 540Z" fill="#0c2435" stroke="#0c2435"></path>
		<path d="M468 540L294 544L520 540Z" fill="#081a28" stroke="#081a28"></path>
		<path d="M520 540L960 560L522 540Z" fill="#1d4e6b" stroke="#1d4e6b"></path>
		<path d="M822 547L600 540L960 560Z" fill="#277297" stroke="#277297"></path>
		<path d="M522 540L600 540L584 489Z" fill="#297ea6" stroke="#297ea6"></path>
		<path d="M390 78L325 100L404 137Z" fill="#0c2435" stroke="#0c2435"></path>
		<path d="M325 100L306 116L396 179Z" fill="#205a7a" stroke="#205a7a"></path>
		<path d="M294 544L372 540L360 471Z" fill="#205a7a" stroke="#205a7a"></path>
		<path d="M705 427L737 391L689 396Z" fill="#19435d" stroke="#19435d"></path>
		<path d="M776 294L749 238L740 267Z" fill="#246688" stroke="#246688"></path>
		<path d="M753 450L737 391L705 427Z" fill="#081a28" stroke="#081a28"></path>
		<path d="M306 116L290 128L315 227Z" fill="#297ea6" stroke="#297ea6"></path>
		<path d="M284 89L290 128L306 116Z" fill="#112e42" stroke="#112e42"></path>
		<path d="M727 152L679 212L747 177Z" fill="#205a7a" stroke="#205a7a"></path>
		<path d="M664 127L681 121L640 101Z" fill="#246688" stroke="#246688"></path>
		<path d="M776 294L705 309L735 362Z" fill="#205a7a" stroke="#205a7a"></path>
		<path d="M740 267L749 238L729 269Z" fill="#277297" stroke="#277297"></path>
		<path d="M681 121L645 85L640 101Z" fill="#19435d" stroke="#19435d"></path>
		<path d="M640 101L645 85L605 95Z" fill="#081a28" stroke="#081a28"></path>
		<path d="M224 221L219 287L266 246Z" fill="#15384f" stroke="#15384f"></path>
		<path d="M232 290L219 287L244 309Z" fill="#112e42" stroke="#112e42"></path>
		<path d="M215 358L298 386L250 344Z" fill="#1d4e6b" stroke="#1d4e6b"></path>
		<path d="M294 465L294 544L360 471Z" fill="#0c2435" stroke="#0c2435"></path>
		<path d="M221 346L250 344L237 333Z" fill="#19435d" stroke="#19435d"></path>
		<path d="M219 287L221 346L237 333Z" fill="#0c2435" stroke="#0c2435"></path>
		<path d="M390 78L346 71L325 100Z" fill="#15384f" stroke="#15384f"></path>
		<path d="M325 100L284 89L306 116Z" fill="#277297" stroke="#277297"></path>
		<path d="M349 68L346 71L390 78Z" fill="#246688" stroke="#246688"></path>
		<path d="M334 39L349 68L405 0Z" fill="#246688" stroke="#246688"></path>
		<path d="M191 141L224 221L246 222Z" fill="#205a7a" stroke="#205a7a"></path>
		<path d="M246 222L224 221L266 246Z" fill="#00101c" stroke="#00101c"></path>
		<path d="M197 362L215 358L221 346Z" fill="#277297" stroke="#277297"></path>
		<path d="M221 346L215 358L250 344Z" fill="#1d4e6b" stroke="#1d4e6b"></path>
		<path d="M600 540L648 533L614 475Z" fill="#277297" stroke="#277297"></path>
		<path d="M681 474L753 450L699 430Z" fill="#246688" stroke="#246688"></path>
		<path d="M508 0L445 27L487 66Z" fill="#00101c" stroke="#00101c"></path>
		<path d="M487 66L445 27L390 78Z" fill="#081a28" stroke="#081a28"></path>
		<path d="M508 0L487 66L518 0Z" fill="#19435d" stroke="#19435d"></path>
		<path d="M822 547L642 540L600 540Z" fill="#081a28" stroke="#081a28"></path>
		<path d="M600 540L642 540L648 533Z" fill="#00101c" stroke="#00101c"></path>
		<path d="M681 121L683 81L645 85Z" fill="#112e42" stroke="#112e42"></path>
		<path d="M747 177L679 212L701 232Z" fill="#277297" stroke="#277297"></path>
		<path d="M795 210L752 201L749 238Z" fill="#297ea6" stroke="#297ea6"></path>
		<path d="M749 238L752 201L701 232Z" fill="#277297" stroke="#277297"></path>
		<path d="M811 383L776 294L735 362Z" fill="#15384f" stroke="#15384f"></path>
		<path d="M795 210L747 177L752 201Z" fill="#246688" stroke="#246688"></path>
		<path d="M752 201L747 177L701 232Z" fill="#19435d" stroke="#19435d"></path>
		<path d="M717 114L681 121L727 152Z" fill="#081a28" stroke="#081a28"></path>
		<path d="M717 114L683 81L681 121Z" fill="#246688" stroke="#246688"></path>
		<path d="M518 0L487 66L556 65Z" fill="#297ea6" stroke="#297ea6"></path>
		<path d="M334 39L346 71L349 68Z" fill="#19435d" stroke="#19435d"></path>
		<path d="M334 39L284 89L346 71Z" fill="#205a7a" stroke="#205a7a"></path>
		<path d="M346 71L284 89L325 100Z" fill="#081a28" stroke="#081a28"></path>
		<path d="M290 128L251 114L246 222Z" fill="#15384f" stroke="#15384f"></path>
		<path d="M184 297L197 362L221 346Z" fill="#297ea6" stroke="#297ea6"></path>
		<path d="M215 358L215 457L256 442Z" fill="#297ea6" stroke="#297ea6"></path>
		<path d="M184 297L221 346L219 287Z" fill="#112e42" stroke="#112e42"></path>
		<path d="M785 121L717 114L727 152Z" fill="#277297" stroke="#277297"></path>
		<path d="M681 540L681 474L648 533Z" fill="#297ea6" stroke="#297ea6"></path>
		<path d="M736 511L753 450L681 474Z" fill="#112e42" stroke="#112e42"></path>
		<path d="M737 391L811 383L735 362Z" fill="#15384f" stroke="#15384f"></path>
		<path d="M284 89L251 114L290 128Z" fill="#297ea6" stroke="#297ea6"></path>
		<path d="M172 251L219 287L224 221Z" fill="#297ea6" stroke="#297ea6"></path>
		<path d="M172 251L184 297L219 287Z" fill="#19435d" stroke="#19435d"></path>
		<path d="M642 540L681 540L648 533Z" fill="#277297" stroke="#277297"></path>
		<path d="M822 547L681 540L642 540Z" fill="#19435d" stroke="#19435d"></path>
		<path d="M518 0L556 65L617 0Z" fill="#19435d" stroke="#19435d"></path>
		<path d="M405 0L349 68L390 78Z" fill="#246688" stroke="#246688"></path>
		<path d="M617 0L605 95L645 85Z" fill="#205a7a" stroke="#205a7a"></path>
		<path d="M405 0L390 78L445 27Z" fill="#00101c" stroke="#00101c"></path>
		<path d="M284 89L275 76L251 114Z" fill="#15384f" stroke="#15384f"></path>
		<path d="M372 540L294 544L387 541Z" fill="#112e42" stroke="#112e42"></path>
		<path d="M387 541L294 544L468 540Z" fill="#19435d" stroke="#19435d"></path>
		<path d="M281 540L294 544L294 465Z" fill="#277297" stroke="#277297"></path>
		<path d="M263 540L294 465L256 442Z" fill="#205a7a" stroke="#205a7a"></path>
		<path d="M508 0L418 0L445 27Z" fill="#081a28" stroke="#081a28"></path>
		<path d="M334 39L275 76L284 89Z" fill="#205a7a" stroke="#205a7a"></path>
		<path d="M164 445L215 457L197 362Z" fill="#15384f" stroke="#15384f"></path>
		<path d="M197 362L215 457L215 358Z" fill="#00101c" stroke="#00101c"></path>
		<path d="M263 540L281 540L294 465Z" fill="#297ea6" stroke="#297ea6"></path>
		<path d="M418 0L405 0L445 27Z" fill="#1d4e6b" stroke="#1d4e6b"></path>
		<path d="M147 231L172 251L224 221Z" fill="#246688" stroke="#246688"></path>
		<path d="M184 297L129 352L197 362Z" fill="#112e42" stroke="#112e42"></path>
		<path d="M814 249L795 210L749 238Z" fill="#0c2435" stroke="#0c2435"></path>
		<path d="M747 177L785 121L727 152Z" fill="#112e42" stroke="#112e42"></path>
		<path d="M814 249L749 238L776 294Z" fill="#277297" stroke="#277297"></path>
		<path d="M681 540L736 511L681 474Z" fill="#297ea6" stroke="#297ea6"></path>
		<path d="M215 457L263 540L256 442Z" fill="#1d4e6b" stroke="#1d4e6b"></path>
		<path d="M281 540L263 540L294 544Z" fill="#081a28" stroke="#081a28"></path>
		<path d="M275 76L238 94L251 114Z" fill="#00101c" stroke="#00101c"></path>
		<path d="M251 114L191 141L246 222Z" fill="#1d4e6b" stroke="#1d4e6b"></path>
		<path d="M236 74L238 94L275 76Z" fill="#15384f" stroke="#15384f"></path>
		<path d="M147 231L163 261L172 251Z" fill="#0c2435" stroke="#0c2435"></path>
		<path d="M172 251L163 261L184 297Z" fill="#297ea6" stroke="#297ea6"></path>
		<path d="M624 0L645 85L632 0Z" fill="#15384f" stroke="#15384f"></path>
		<path d="M624 0L617 0L645 85Z" fill="#15384f" stroke="#15384f"></path>
		<path d="M855 329L814 249L776 294Z" fill="#00101c" stroke="#00101c"></path>
		<path d="M811 383L737 391L809 428Z" fill="#277297" stroke="#277297"></path>
		<path d="M809 428L737 391L753 450Z" fill="#19435d" stroke="#19435d"></path>
		<path d="M632 0L645 85L687 23Z" fill="#246688" stroke="#246688"></path>
		<path d="M767 496L790 452L753 450Z" fill="#19435d" stroke="#19435d"></path>
		<path d="M289 0L302 24L334 39Z" fill="#19435d" stroke="#19435d"></path>
		<path d="M334 39L302 24L275 76Z" fill="#19435d" stroke="#19435d"></path>
		<path d="M687 23L645 85L683 81Z" fill="#15384f" stroke="#15384f"></path>
		<path d="M687 23L748 0L715 0Z" fill="#00101c" stroke="#00101c"></path>
		<path d="M795 519L767 496L736 511Z" fill="#081a28" stroke="#081a28"></path>
		<path d="M736 511L767 496L753 450Z" fill="#277297" stroke="#277297"></path>
		<path d="M176 44L191 141L238 94Z" fill="#15384f" stroke="#15384f"></path>
		<path d="M238 94L191 141L251 114Z" fill="#277297" stroke="#277297"></path>
		<path d="M256 33L236 74L275 76Z" fill="#0c2435" stroke="#0c2435"></path>
		<path d="M810 432L809 428L790 452Z" fill="#297ea6" stroke="#297ea6"></path>
		<path d="M790 452L809 428L753 450Z" fill="#19435d" stroke="#19435d"></path>
		<path d="M687 23L683 81L748 0Z" fill="#1d4e6b" stroke="#1d4e6b"></path>
		<path d="M853 480L810 432L790 452Z" fill="#0c2435" stroke="#0c2435"></path>
		<path d="M860 424L863 389L811 383Z" fill="#205a7a" stroke="#205a7a"></path>
		<path d="M811 383L855 329L776 294Z" fill="#0c2435" stroke="#0c2435"></path>
		<path d="M826 144L785 121L747 177Z" fill="#081a28" stroke="#081a28"></path>
		<path d="M826 144L747 177L795 210Z" fill="#246688" stroke="#246688"></path>
		<path d="M131 185L147 231L224 221Z" fill="#1d4e6b" stroke="#1d4e6b"></path>
		<path d="M163 261L140 254L184 297Z" fill="#297ea6" stroke="#297ea6"></path>
		<path d="M147 231L140 254L163 261Z" fill="#297ea6" stroke="#297ea6"></path>
		<path d="M135 400L164 445L197 362Z" fill="#0c2435" stroke="#0c2435"></path>
		<path d="M215 457L191 498L263 540Z" fill="#19435d" stroke="#19435d"></path>
		<path d="M164 445L191 498L215 457Z" fill="#297ea6" stroke="#297ea6"></path>
		<path d="M283 0L256 33L302 24Z" fill="#1d4e6b" stroke="#1d4e6b"></path>
		<path d="M302 24L256 33L275 76Z" fill="#297ea6" stroke="#297ea6"></path>
		<path d="M107 135L131 185L191 141Z" fill="#297ea6" stroke="#297ea6"></path>
		<path d="M140 254L129 352L184 297Z" fill="#15384f" stroke="#15384f"></path>
		<path d="M405 0L289 0L334 39Z" fill="#205a7a" stroke="#205a7a"></path>
		<path d="M129 352L135 400L197 362Z" fill="#1d4e6b" stroke="#1d4e6b"></path>
		<path d="M185 540L195 540L191 498Z" fill="#15384f" stroke="#15384f"></path>
		<path d="M289 0L283 0L302 24Z" fill="#00101c" stroke="#00101c"></path>
		<path d="M863 389L855 329L811 383Z" fill="#081a28" stroke="#081a28"></path>
		<path d="M858 164L826 144L795 210Z" fill="#00101c" stroke="#00101c"></path>
		<path d="M283 0L271 0L256 33Z" fill="#205a7a" stroke="#205a7a"></path>
		<path d="M176 44L238 94L236 74Z" fill="#19435d" stroke="#19435d"></path>
		<path d="M858 164L795 210L872 186Z" fill="#297ea6" stroke="#297ea6"></path>
		<path d="M796 55L683 81L717 114Z" fill="#112e42" stroke="#112e42"></path>
		<path d="M809 540L795 519L736 511Z" fill="#0c2435" stroke="#0c2435"></path>
		<path d="M767 496L795 519L790 452Z" fill="#19435d" stroke="#19435d"></path>
		<path d="M860 424L811 383L809 428Z" fill="#246688" stroke="#246688"></path>
		<path d="M185 540L191 498L152 539Z" fill="#081a28" stroke="#081a28"></path>
		<path d="M191 498L195 540L263 540Z" fill="#205a7a" stroke="#205a7a"></path>
		<path d="M263 540L195 540L294 544Z" fill="#205a7a" stroke="#205a7a"></path>
		<path d="M206 36L236 74L256 33Z" fill="#277297" stroke="#277297"></path>
		<path d="M191 141L131 185L224 221Z" fill="#00101c" stroke="#00101c"></path>
		<path d="M147 231L101 232L140 254Z" fill="#0c2435" stroke="#0c2435"></path>
		<path d="M140 254L74 310L129 352Z" fill="#00101c" stroke="#00101c"></path>
		<path d="M826 144L823 128L785 121Z" fill="#081a28" stroke="#081a28"></path>
		<path d="M796 55L717 114L785 121Z" fill="#297ea6" stroke="#297ea6"></path>
		<path d="M687 23L687 -22L632 0Z" fill="#081a28" stroke="#081a28"></path>
		<path d="M715 0L687 -22L687 23Z" fill="#1d4e6b" stroke="#1d4e6b"></path>
		<path d="M632 0L687 -22L624 0Z" fill="#00101c" stroke="#00101c"></path>
		<path d="M624 0L687 -22L617 0Z" fill="#0c2435" stroke="#0c2435"></path>
		<path d="M617 0L687 -22L518 0Z" fill="#00101c" stroke="#00101c"></path>
		<path d="M518 0L687 -22L508 0Z" fill="#277297" stroke="#277297"></path>
		<path d="M508 0L687 -22L418 0Z" fill="#19435d" stroke="#19435d"></path>
		<path d="M418 0L687 -22L405 0Z" fill="#1d4e6b" stroke="#1d4e6b"></path>
		<path d="M405 0L687 -22L289 0Z" fill="#112e42" stroke="#112e42"></path>
		<path d="M289 0L687 -22L283 0Z" fill="#00101c" stroke="#00101c"></path>
		<path d="M283 0L687 -22L271 0Z" fill="#19435d" stroke="#19435d"></path>
		<path d="M151 491L191 498L164 445Z" fill="#112e42" stroke="#112e42"></path>
		<path d="M195 540L185 540L294 544Z" fill="#00101c" stroke="#00101c"></path>
		<path d="M860 424L809 428L810 432Z" fill="#19435d" stroke="#19435d"></path>
		<path d="M687 -22L253 0L271 0Z" fill="#205a7a" stroke="#205a7a"></path>
		<path d="M271 0L253 0L256 33Z" fill="#081a28" stroke="#081a28"></path>
		<path d="M87 374L117 408L135 400Z" fill="#15384f" stroke="#15384f"></path>
		<path d="M135 400L117 408L164 445Z" fill="#0c2435" stroke="#0c2435"></path>
		<path d="M87 374L135 400L129 352Z" fill="#1d4e6b" stroke="#1d4e6b"></path>
		<path d="M98 451L151 491L164 445Z" fill="#00101c" stroke="#00101c"></path>
		<path d="M225 11L206 36L256 33Z" fill="#1d4e6b" stroke="#1d4e6b"></path>
		<path d="M853 480L860 424L810 432Z" fill="#112e42" stroke="#112e42"></path>
		<path d="M88 183L107 210L131 185Z" fill="#205a7a" stroke="#205a7a"></path>
		<path d="M131 185L107 210L147 231Z" fill="#1d4e6b" stroke="#1d4e6b"></path>
		<path d="M107 210L101 232L147 231Z" fill="#081a28" stroke="#081a28"></path>
		<path d="M253 0L225 11L256 33Z" fill="#297ea6" stroke="#297ea6"></path>
		<path d="M826 144L867 112L823 128Z" fill="#19435d" stroke="#19435d"></path>
		<path d="M819 70L796 55L785 121Z" fill="#297ea6" stroke="#297ea6"></path>
		<path d="M872 186L795 210L814 249Z" fill="#297ea6" stroke="#297ea6"></path>
		<path d="M885 329L814 249L855 329Z" fill="#1d4e6b" stroke="#1d4e6b"></path>
		<path d="M825 81L785 121L823 128Z" fill="#205a7a" stroke="#205a7a"></path>
		<path d="M715 0L748 0L687 -22Z" fill="#00101c" stroke="#00101c"></path>
		<path d="M910 338L885 329L863 389Z" fill="#00101c" stroke="#00101c"></path>
		<path d="M863 389L885 329L855 329Z" fill="#15384f" stroke="#15384f"></path>
		<path d="M681 540L809 540L736 511Z" fill="#277297" stroke="#277297"></path>
		<path d="M795 519L853 480L790 452Z" fill="#0c2435" stroke="#0c2435"></path>
		<path d="M822 547L809 540L681 540Z" fill="#081a28" stroke="#081a28"></path>
		<path d="M796 55L748 0L683 81Z" fill="#081a28" stroke="#081a28"></path>
		<path d="M885 329L872 186L814 249Z" fill="#1d4e6b" stroke="#1d4e6b"></path>
		<path d="M867 112L825 81L823 128Z" fill="#277297" stroke="#277297"></path>
		<path d="M867 112L826 144L858 164Z" fill="#1d4e6b" stroke="#1d4e6b"></path>
		<path d="M796 55L786 0L748 0Z" fill="#205a7a" stroke="#205a7a"></path>
		<path d="M849 517L853 480L795 519Z" fill="#297ea6" stroke="#297ea6"></path>
		<path d="M960 348L910 338L960 381Z" fill="#297ea6" stroke="#297ea6"></path>
		<path d="M825 81L819 70L785 121Z" fill="#19435d" stroke="#19435d"></path>
		<path d="M822 547L818 540L809 540Z" fill="#00101c" stroke="#00101c"></path>
		<path d="M809 540L818 540L795 519Z" fill="#00101c" stroke="#00101c"></path>
		<path d="M135 0L176 44L206 36Z" fill="#00101c" stroke="#00101c"></path>
		<path d="M206 36L176 44L236 74Z" fill="#246688" stroke="#246688"></path>
		<path d="M74 310L87 374L129 352Z" fill="#1d4e6b" stroke="#1d4e6b"></path>
		<path d="M117 408L98 429L164 445Z" fill="#19435d" stroke="#19435d"></path>
		<path d="M78 394L97 419L117 408Z" fill="#205a7a" stroke="#205a7a"></path>
		<path d="M151 491L152 539L191 498Z" fill="#277297" stroke="#277297"></path>
		<path d="M889 178L872 163L872 186Z" fill="#246688" stroke="#246688"></path>
		<path d="M872 186L872 163L858 164Z" fill="#277297" stroke="#277297"></path>
		<path d="M825 81L853 20L819 70Z" fill="#205a7a" stroke="#205a7a"></path>
		<path d="M98 451L98 429L80 470Z" fill="#205a7a" stroke="#205a7a"></path>
		<path d="M97 419L98 429L117 408Z" fill="#205a7a" stroke="#205a7a"></path>
		<path d="M125 540L152 539L151 491Z" fill="#112e42" stroke="#112e42"></path>
		<path d="M185 540L125 540L294 544Z" fill="#15384f" stroke="#15384f"></path>
		<path d="M960 560L600 540L522 540Z" fill="#19435d" stroke="#19435d"></path>
		<path d="M818 540L849 517L795 519Z" fill="#15384f" stroke="#15384f"></path>
		<path d="M62 271L74 310L140 254Z" fill="#1d4e6b" stroke="#1d4e6b"></path>
		<path d="M76 401L98 429L97 419Z" fill="#19435d" stroke="#19435d"></path>
		<path d="M62 271L140 254L101 232Z" fill="#0c2435" stroke="#0c2435"></path>
		<path d="M78 394L117 408L87 374Z" fill="#0c2435" stroke="#0c2435"></path>
		<path d="M98 429L98 451L164 445Z" fill="#112e42" stroke="#112e42"></path>
		<path d="M115 72L107 135L191 141Z" fill="#205a7a" stroke="#205a7a"></path>
		<path d="M107 210L88 183L101 232Z" fill="#112e42" stroke="#112e42"></path>
		<path d="M107 135L88 183L131 185Z" fill="#112e42" stroke="#112e42"></path>
		<path d="M842 540L849 517L818 540Z" fill="#246688" stroke="#246688"></path>
		<path d="M938 318L910 338L960 348Z" fill="#00101c" stroke="#00101c"></path>
		<path d="M-2 314L78 394L87 374Z" fill="#205a7a" stroke="#205a7a"></path>
		<path d="M953 228L889 178L872 186Z" fill="#277297" stroke="#277297"></path>
		<path d="M872 163L867 112L858 164Z" fill="#19435d" stroke="#19435d"></path>
		<path d="M80 470L110 492L98 451Z" fill="#205a7a" stroke="#205a7a"></path>
		<path d="M98 451L110 492L151 491Z" fill="#00101c" stroke="#00101c"></path>
		<path d="M863 389L960 381L910 338Z" fill="#205a7a" stroke="#205a7a"></path>
		<path d="M885 329L953 228L872 186Z" fill="#112e42" stroke="#112e42"></path>
		<path d="M0 418L76 401L78 394Z" fill="#0c2435" stroke="#0c2435"></path>
		<path d="M78 394L76 401L97 419Z" fill="#081a28" stroke="#081a28"></path>
		<path d="M910 338L911 334L885 329Z" fill="#277297" stroke="#277297"></path>
		<path d="M923 126L867 112L872 163Z" fill="#1d4e6b" stroke="#1d4e6b"></path>
		<path d="M853 20L786 0L796 55Z" fill="#081a28" stroke="#081a28"></path>
		<path d="M822 547L842 540L818 540Z" fill="#00101c" stroke="#00101c"></path>
		<path d="M863 389L860 424L960 381Z" fill="#081a28" stroke="#081a28"></path>
		<path d="M853 20L796 55L819 70Z" fill="#246688" stroke="#246688"></path>
		<path d="M748 0L786 0L687 -22Z" fill="#081a28" stroke="#081a28"></path>
		<path d="M0 228L62 271L101 232Z" fill="#0c2435" stroke="#0c2435"></path>
		<path d="M74 310L-2 314L87 374Z" fill="#246688" stroke="#246688"></path>
		<path d="M50 540L125 540L110 492Z" fill="#205a7a" stroke="#205a7a"></path>
		<path d="M110 492L125 540L151 491Z" fill="#0c2435" stroke="#0c2435"></path>
		<path d="M152 539L125 540L185 540Z" fill="#15384f" stroke="#15384f"></path>
		<path d="M176 44L115 72L191 141Z" fill="#112e42" stroke="#112e42"></path>
		<path d="M107 135L64 134L88 183Z" fill="#1d4e6b" stroke="#1d4e6b"></path>
		<path d="M88 183L42 170L101 232Z" fill="#246688" stroke="#246688"></path>
		<path d="M109 53L115 72L176 44Z" fill="#277297" stroke="#277297"></path>
		<path d="M76 401L80 470L98 429Z" fill="#277297" stroke="#277297"></path>
		<path d="M0 418L80 470L76 401Z" fill="#297ea6" stroke="#297ea6"></path>
		<path d="M115 72L91 94L107 135Z" fill="#277297" stroke="#277297"></path>
		<path d="M876 540L853 480L849 517Z" fill="#277297" stroke="#277297"></path>
		<path d="M910 338L938 318L911 334Z" fill="#297ea6" stroke="#297ea6"></path>
		<path d="M911 334L938 318L885 329Z" fill="#0c2435" stroke="#0c2435"></path>
		<path d="M930 41L853 20L867 112Z" fill="#0c2435" stroke="#0c2435"></path>
		<path d="M822 547L876 540L842 540Z" fill="#0c2435" stroke="#0c2435"></path>
		<path d="M842 540L876 540L849 517Z" fill="#277297" stroke="#277297"></path>
		<path d="M135 0L109 53L176 44Z" fill="#277297" stroke="#277297"></path>
		<path d="M115 72L78 71L91 94Z" fill="#112e42" stroke="#112e42"></path>
		<path d="M135 0L206 36L225 11Z" fill="#277297" stroke="#277297"></path>
		<path d="M43 112L64 134L91 94Z" fill="#112e42" stroke="#112e42"></path>
		<path d="M91 94L64 134L107 135Z" fill="#277297" stroke="#277297"></path>
		<path d="M867 112L853 20L825 81Z" fill="#19435d" stroke="#19435d"></path>
		<path d="M923 126L872 163L889 178Z" fill="#19435d" stroke="#19435d"></path>
		<path d="M64 134L42 170L88 183Z" fill="#297ea6" stroke="#297ea6"></path>
		<path d="M62 271L0 301L74 310Z" fill="#00101c" stroke="#00101c"></path>
		<path d="M43 112L42 170L64 134Z" fill="#15384f" stroke="#15384f"></path>
		<path d="M253 0L135 0L225 11Z" fill="#205a7a" stroke="#205a7a"></path>
		<path d="M109 53L78 71L115 72Z" fill="#297ea6" stroke="#297ea6"></path>
		<path d="M687 -22L135 0L253 0Z" fill="#277297" stroke="#277297"></path>
		<path d="M960 168L923 126L889 178Z" fill="#15384f" stroke="#15384f"></path>
		<path d="M960 254L953 228L885 329Z" fill="#277297" stroke="#277297"></path>
		<path d="M75 27L78 71L109 53Z" fill="#112e42" stroke="#112e42"></path>
		<path d="M923 126L917 107L867 112Z" fill="#1d4e6b" stroke="#1d4e6b"></path>
		<path d="M960 381L860 424L972 458Z" fill="#0c2435" stroke="#0c2435"></path>
		<path d="M938 318L960 254L885 329Z" fill="#277297" stroke="#277297"></path>
		<path d="M960 348L960 254L938 318Z" fill="#15384f" stroke="#15384f"></path>
		<path d="M935 497L860 424L853 480Z" fill="#112e42" stroke="#112e42"></path>
		<path d="M953 228L960 196L889 178Z" fill="#297ea6" stroke="#297ea6"></path>
		<path d="M923 126L960 102L917 107Z" fill="#19435d" stroke="#19435d"></path>
		<path d="M960 254L960 222L953 228Z" fill="#297ea6" stroke="#297ea6"></path>
		<path d="M960 348L968 355L960 254Z" fill="#112e42" stroke="#112e42"></path>
		<path d="M960 254L968 355L960 222Z" fill="#081a28" stroke="#081a28"></path>
		<path d="M960 381L968 355L960 348Z" fill="#00101c" stroke="#00101c"></path>
		<path d="M881 0L866 3L853 20Z" fill="#246688" stroke="#246688"></path>
		<path d="M853 20L866 3L786 0Z" fill="#081a28" stroke="#081a28"></path>
		<path d="M786 0L881 0L687 -22Z" fill="#246688" stroke="#246688"></path>
		<path d="M960 222L960 196L953 228Z" fill="#15384f" stroke="#15384f"></path>
		<path d="M968 355L960 196L960 222Z" fill="#277297" stroke="#277297"></path>
		<path d="M0 78L43 112L78 71Z" fill="#246688" stroke="#246688"></path>
		<path d="M78 71L43 112L91 94Z" fill="#246688" stroke="#246688"></path>
		<path d="M876 540L935 497L853 480Z" fill="#1d4e6b" stroke="#1d4e6b"></path>
		<path d="M960 381L972 458L968 355Z" fill="#297ea6" stroke="#297ea6"></path>
		<path d="M0 294L62 271L0 286Z" fill="#19435d" stroke="#19435d"></path>
		<path d="M0 294L0 301L62 271Z" fill="#081a28" stroke="#081a28"></path>
		<path d="M0 286L62 271L0 228Z" fill="#0c2435" stroke="#0c2435"></path>
		<path d="M0 228L101 232L42 170Z" fill="#297ea6" stroke="#297ea6"></path>
		<path d="M-13 312L0 301L0 294Z" fill="#297ea6" stroke="#297ea6"></path>
		<path d="M-13 312L-2 314L0 301Z" fill="#0c2435" stroke="#0c2435"></path>
		<path d="M0 301L-2 314L74 310Z" fill="#297ea6" stroke="#297ea6"></path>
		<path d="M968 355L960 168L960 196Z" fill="#19435d" stroke="#19435d"></path>
		<path d="M960 196L960 168L889 178Z" fill="#277297" stroke="#277297"></path>
		<path d="M886 0L881 0L853 20Z" fill="#0c2435" stroke="#0c2435"></path>
		<path d="M0 180L0 228L42 170Z" fill="#00101c" stroke="#00101c"></path>
		<path d="M0 286L-13 312L0 294Z" fill="#205a7a" stroke="#205a7a"></path>
		<path d="M968 355L960 150L960 168Z" fill="#1d4e6b" stroke="#1d4e6b"></path>
		<path d="M960 168L960 150L923 126Z" fill="#112e42" stroke="#112e42"></path>
		<path d="M886 0L853 20L930 41Z" fill="#1d4e6b" stroke="#1d4e6b"></path>
		<path d="M866 3L881 0L786 0Z" fill="#1d4e6b" stroke="#1d4e6b"></path>
		<path d="M135 0L75 27L109 53Z" fill="#19435d" stroke="#19435d"></path>
		<path d="M0 488L50 540L80 470Z" fill="#15384f" stroke="#15384f"></path>
		<path d="M80 470L50 540L110 492Z" fill="#0c2435" stroke="#0c2435"></path>
		<path d="M125 540L50 540L294 544Z" fill="#15384f" stroke="#15384f"></path>
		<path d="M930 41L867 112L917 107Z" fill="#205a7a" stroke="#205a7a"></path>
		<path d="M881 0L886 0L687 -22Z" fill="#297ea6" stroke="#297ea6"></path>
		<path d="M-20 237L-13 312L0 286Z" fill="#297ea6" stroke="#297ea6"></path>
		<path d="M-2 314L0 418L78 394Z" fill="#15384f" stroke="#15384f"></path>
		<path d="M-13 312L0 418L-2 314Z" fill="#112e42" stroke="#112e42"></path>
		<path d="M0 163L0 180L42 170Z" fill="#205a7a" stroke="#205a7a"></path>
		<path d="M0 228L-20 237L0 286Z" fill="#15384f" stroke="#15384f"></path>
		<path d="M0 163L42 170L43 112Z" fill="#277297" stroke="#277297"></path>
		<path d="M935 497L972 458L860 424Z" fill="#00101c" stroke="#00101c"></path>
		<path d="M0 78L0 163L43 112Z" fill="#081a28" stroke="#081a28"></path>
		<path d="M0 180L-20 237L0 228Z" fill="#246688" stroke="#246688"></path>
		<path d="M0 418L0 460L80 470Z" fill="#297ea6" stroke="#297ea6"></path>
		<path d="M-13 312L0 460L0 418Z" fill="#1d4e6b" stroke="#1d4e6b"></path>
		<path d="M0 163L-20 237L0 180Z" fill="#1d4e6b" stroke="#1d4e6b"></path>
		<path d="M-13 312L0 488L0 460Z" fill="#205a7a" stroke="#205a7a"></path>
		<path d="M968 355L960 102L960 150Z" fill="#081a28" stroke="#081a28"></path>
		<path d="M960 150L960 102L923 126Z" fill="#19435d" stroke="#19435d"></path>
		<path d="M960 20L960 102L968 355Z" fill="#081a28" stroke="#081a28"></path>
		<path d="M935 497L960 508L972 458Z" fill="#277297" stroke="#277297"></path>
		<path d="M960 540L960 508L935 497Z" fill="#0c2435" stroke="#0c2435"></path>
		<path d="M960 102L930 41L917 107Z" fill="#00101c" stroke="#00101c"></path>
		<path d="M0 540L0 488L-13 312Z" fill="#205a7a" stroke="#205a7a"></path>
		<path d="M0 460L0 488L80 470Z" fill="#297ea6" stroke="#297ea6"></path>
		<path d="M135 0L61 0L75 27Z" fill="#1d4e6b" stroke="#1d4e6b"></path>
		<path d="M0 34L0 78L78 71Z" fill="#205a7a" stroke="#205a7a"></path>
		<path d="M687 -22L61 0L135 0Z" fill="#246688" stroke="#246688"></path>
		<path d="M876 540L960 540L935 497Z" fill="#246688" stroke="#246688"></path>
		<path d="M960 508L960 540L972 458Z" fill="#1d4e6b" stroke="#1d4e6b"></path>
		<path d="M960 560L960 540L876 540Z" fill="#205a7a" stroke="#205a7a"></path>
		<path d="M822 547L960 560L876 540Z" fill="#297ea6" stroke="#297ea6"></path>
		<path d="M960 540L960 560L972 458Z" fill="#112e42" stroke="#112e42"></path>
		<path d="M294 544L960 560L520 540Z" fill="#00101c" stroke="#00101c"></path>
		<path d="M0 540L960 560L294 544Z" fill="#19435d" stroke="#19435d"></path>
		<path d="M0 34L78 71L75 27Z" fill="#0c2435" stroke="#0c2435"></path>
		<path d="M0 163L0 78L-20 237Z" fill="#205a7a" stroke="#205a7a"></path>
		<path d="M687 -22L44 0L61 0Z" fill="#00101c" stroke="#00101c"></path>
		<path d="M61 0L44 0L75 27Z" fill="#297ea6" stroke="#297ea6"></path>
		<path d="M0 488L0 540L50 540Z" fill="#00101c" stroke="#00101c"></path>
		<path d="M50 540L0 540L294 544Z" fill="#297ea6" stroke="#297ea6"></path>
		<path d="M-20 237L0 540L-13 312Z" fill="#297ea6" stroke="#297ea6"></path>
		<path d="M960 102L960 20L930 41Z" fill="#205a7a" stroke="#205a7a"></path>
		<path d="M930 41L960 0L886 0Z" fill="#19435d" stroke="#19435d"></path>
		<path d="M960 0L960 20L968 355Z" fill="#297ea6" stroke="#297ea6"></path>
		<path d="M44 0L0 34L75 27Z" fill="#00101c" stroke="#00101c"></path>
		<path d="M0 78L0 34L-20 237Z" fill="#081a28" stroke="#081a28"></path>
		<path d="M972 458L960 0L968 355Z" fill="#15384f" stroke="#15384f"></path>
		<path d="M960 20L960 0L930 41Z" fill="#277297" stroke="#277297"></path>
		<path d="M886 0L960 0L687 -22Z" fill="#0c2435" stroke="#0c2435"></path>
		<path d="M687 -22L0 0L44 0Z" fill="#0c2435" stroke="#0c2435"></path>
		<path d="M44 0L0 0L0 34Z" fill="#205a7a" stroke="#205a7a"></path>
		<path d="M0 34L0 0L-20 237Z" fill="#112e42" stroke="#112e42"></path>
	</g>
</svg>